<svg xmlns="http://www.w3.org/2000/svg" viewBox="0 0 24 24" fill="none" stroke="currentColor" stroke-width="2" stroke-linecap="round" stroke-linejoin="round"><path d="M12 2c-1.5 0-3 .5-3 2 0 1.5 2 2 2 5s-2 3.5-2 5c0 1.5 1.5 2 3 2s3-.5 3-2c0-1.5-2-2-2-5s2-3.5 2-5c0-1.5-1.5-2-3-2z"/><path d="M9 18c-1.5 1.5-3 2.5-4 3 .5-1.5.5-4 0-6-1.5-1.5-3-2.5-4-3 .5-1.5.5-4 0-6 1-1 2.5-2 4-3-1 2-1 5 0 7 1.5 1.5 3 2.5 4 3-.5 1.5-.5 4 0 5z"/><path d="M15 18c1.5 1.5 3 2.5 4 3-.5-1.5-.5-4 0-6 1.5-1.5 3-2.5 4-3-.5-1.5-.5-4 0-6-1-1-2.5-2-4-3 1 2 1 5 0 7-1.5 1.5-3 2.5-4 3 .5 1.5.5 4 0 5z"/></svg>